<svg width="31" height="23" viewBox="0 0 31 23" fill="none" xmlns="http://www.w3.org/2000/svg">
<path d="M15.088 0C6.7558 0 0 11.1771 0 11.1771C0 11.1771 6.7558 22.649 15.088 22.649C23.4202 22.649 30.176 11.1771 30.176 11.1771C30.176 11.1771 23.4202 0 15.088 0ZM15.088 18.8741C10.9216 18.8741 7.54399 15.494 7.54399 11.3245C7.54399 7.15496 10.9216 3.77483 15.088 3.77483C19.2544 3.77483 22.632 7.15496 22.632 11.3245C22.632 15.494 19.2544 18.8741 15.088 18.8741Z" fill="#1B1A25"/>
<path d="M19.7596 11.5371C19.7596 13.999 17.6702 15.9912 15.0932 15.9912C12.5162 15.9912 10.4268 13.999 10.4268 11.5371C10.39 9.54997 12.328 7.61764 12.328 7.61764C12.328 7.61764 13.275 8.70434 13.5335 8.72145C14.5266 8.78717 15.0932 5.10229 15.0932 5.10229C15.0932 5.10229 19.7596 9.07527 19.7596 11.5371Z" fill="#1B1A25"/>
</svg>
