<svg width="31" height="23" viewBox="0 0 31 23" fill="none" xmlns="http://www.w3.org/2000/svg">
<path d="M15.088 0C6.7558 0 0 11.1771 0 11.1771C0 11.1771 6.7558 22.649 15.088 22.649C23.4202 22.649 30.176 11.1771 30.176 11.1771C30.176 11.1771 23.4202 0 15.088 0ZM15.088 18.8741C10.9216 18.8741 7.54399 15.494 7.54399 11.3245C7.54399 7.15496 10.9216 3.77483 15.088 3.77483C19.2544 3.77483 22.632 7.15496 22.632 11.3245C22.632 15.494 19.2544 18.8741 15.088 18.8741Z" fill="#1B1A25"/>
<path d="M19.7596 11.5374C19.7596 13.9992 17.6702 15.9914 15.0932 15.9914C12.5162 15.9914 10.4268 13.9992 10.4268 11.5374C10.39 9.55021 12.328 7.61789 12.328 7.61789C12.328 7.61789 13.275 8.70459 13.5335 8.72169C14.5266 8.78742 15.0932 5.10254 15.0932 5.10254C15.0932 5.10254 19.7596 9.07551 19.7596 11.5374Z" fill="#1B1A25"/>
</svg>
